<?xml version="1.0" encoding="UTF-8"?>
<svg version="1.1" xmlns="http://www.w3.org/2000/svg" width="1004" height="347">
<path d="M0 0 C1.84800957 -0.01702469 1.84800957 -0.01702469 3.73335266 -0.03439331 C5.09608525 -0.03174994 6.45881723 -0.0287787 7.82154846 -0.0255127 C9.25916199 -0.03285384 10.69676961 -0.04144021 12.1343689 -0.05117798 C16.03989113 -0.07341349 19.94520245 -0.07632316 23.85077929 -0.07443047 C27.11798026 -0.0743107 30.38513666 -0.08287834 33.65232521 -0.09120798 C41.37087257 -0.11045444 49.08931181 -0.11332353 56.80787659 -0.10656738 C64.74564087 -0.09994614 72.68293816 -0.12271029 80.62060779 -0.15988111 C87.45058618 -0.19069346 94.28041537 -0.2019251 101.11046177 -0.1980443 C105.18264471 -0.19598631 109.25446534 -0.20130548 113.32658195 -0.22593689 C117.16569231 -0.24838912 121.00405284 -0.24617536 124.84316826 -0.22600937 C126.2422546 -0.22263009 127.64139318 -0.22755337 129.04040909 -0.24199295 C139.37222111 -0.34115623 149.60308864 0.76547711 157.72194576 7.74478912 C168.93660646 19.31213218 171.41013435 32.39954191 171.28395081 48.11975098 C170.83231607 64.28903661 166.13110896 78.96040124 161.03858948 94.1986084 C159.3541033 99.32173202 157.79362837 104.48102578 156.23780823 109.64440918 C155.9469635 110.60572754 155.65611877 111.5670459 155.35646057 112.55749512 C154.80824651 114.36967354 154.26052757 116.18200185 153.71339417 117.99450684 C151.20974124 126.27543155 148.66722355 134.54634449 146.0537262 142.79333496 C144.7486482 146.91509977 143.4998562 151.04869703 142.28858948 155.19909668 C141.68852098 157.20175836 141.08826183 159.20436293 140.48780823 161.20690918 C140.21541321 162.16846924 139.94301819 163.1300293 139.66236877 164.12072754 C139.38820129 165.02186279 139.11403381 165.92299805 138.83155823 166.85144043 C138.59630432 167.65557373 138.36105042 168.45970703 138.1186676 169.28820801 C136.53454989 172.23859305 135.05193927 173.06378311 131.98780823 174.39440918 C129.38128641 174.68076099 127.02255009 174.81595778 124.42140198 174.79284668 C123.70549393 174.79571686 122.98958588 174.79858704 122.25198364 174.80154419 C120.74505315 174.80357779 119.23809583 174.79809725 117.73121643 174.78552246 C115.42877644 174.76943341 113.12808524 174.78540549 110.82569885 174.80456543 C109.35759604 174.80258333 107.8894943 174.79874035 106.42140198 174.79284668 C105.73589767 174.79891937 105.05039337 174.80499207 104.34411621 174.81124878 C100.22089209 174.7507264 97.94951376 174.29269387 94.98780823 171.39440918 C93.85114584 163.88939028 97.59492608 155.19250807 99.77687073 148.13659668 C100.36045953 146.20814863 100.94404781 144.27970042 101.52760887 142.35124397 C102.34358586 139.66340442 103.16818225 136.97823859 103.99256897 134.29296875 C105.00854547 130.97829793 106.01570922 127.66095737 107.02296448 124.34362793 C107.42084582 123.03370613 107.81872891 121.72378486 108.21661377 120.41386414 C108.41246252 119.76894705 108.60831127 119.12402996 108.81009483 118.45956993 C109.40021816 116.51703651 109.99100332 114.5747053 110.58187866 112.63240051 C113.07557882 104.42745662 115.55145088 96.2177055 117.97608948 87.99206543 C118.26074066 87.03706146 118.54539185 86.0820575 118.83866882 85.09811401 C121.7066065 75.3018502 124.21393033 65.31192251 121.98390198 55.12878418 C120.37805461 52.33272052 118.99228993 51.65568909 115.98780823 50.39440918 C112.22166445 49.89622822 108.47056791 49.7918958 104.67530823 49.70690918 C103.13520081 49.65566895 103.13520081 49.65566895 101.5639801 49.60339355 C99.0386986 49.52117509 96.51375282 49.45193982 93.98780823 49.39440918 C94.01898743 50.07100586 94.05016663 50.74760254 94.08229065 51.44470215 C94.26132994 58.30767678 93.36320059 63.99844994 91.30030823 70.51940918 C91.02920227 71.41885254 90.75809631 72.3182959 90.47877502 73.24499512 C89.9251038 75.08009379 89.36566837 76.91346382 88.80030823 78.74499512 C88.03852033 81.22904627 87.30327804 83.71877399 86.58155823 86.21472168 C86.3645929 86.96479492 86.14762756 87.71486816 85.92408752 88.4876709 C85.71824036 89.19939453 85.51239319 89.91111816 85.30030823 90.64440918 C83.91997342 95.40026338 82.43449673 100.10745694 80.85572815 104.80114746 C79.02952569 110.25766575 77.2607844 115.7329184 75.48780823 121.20690918 C75.09722229 122.40122559 74.70663635 123.59554199 74.30421448 124.8260498 C72.15562616 131.47075812 70.22108448 138.10345391 68.62013245 144.90197754 C67.9135802 147.68699373 66.9470516 150.3244684 65.86280823 152.98425293 C65.09733232 155.09272899 64.46696729 157.17745718 63.86280823 159.33581543 C63.55415833 160.41041016 63.55415833 160.41041016 63.23927307 161.50671387 C62.82841075 162.94969563 62.43234258 164.39698967 62.05274963 165.84851074 C61.14081742 169.00129878 60.45214949 171.02739317 57.84107971 173.09118652 C54.32048105 174.69920874 51.72419428 174.76692977 47.85890198 174.75769043 C47.18738602 174.75818893 46.51587006 174.75868744 45.82400513 174.75920105 C44.41120936 174.75687064 42.99840864 174.74720323 41.58570862 174.73059082 C39.42834746 174.70694249 37.27221977 174.71004403 35.11476135 174.7166748 C22.84278232 174.66698057 22.84278232 174.66698057 19.98780823 172.39440918 C18.37713 168.21381254 19.38192313 165.108706 20.68312073 160.94128418 C21.06669739 159.69121582 21.45027405 158.44114746 21.84547424 157.15319824 C22.26776501 155.81688658 22.6902129 154.48062456 23.11280823 153.14440918 C23.53839885 151.76945231 23.96279154 150.39412409 24.38600159 149.01843262 C25.21487207 146.32716547 26.04866582 143.63751315 26.88673401 140.94909668 C28.15335971 136.85994586 29.36431611 132.75747438 30.55030823 128.64440918 C32.23659649 122.85675606 33.99631307 117.09326199 35.77662659 111.3338623 C36.80665717 107.99885271 37.82902872 104.66155626 38.85108948 101.32409668 C40.29650506 96.61058106 41.77900117 91.91055864 43.28077698 87.21472168 C44.01703099 84.85813101 44.75272453 82.50136516 45.48780823 80.14440918 C45.83819153 79.07529297 46.18857483 78.00617676 46.54957581 76.90466309 C48.9533441 69.09226481 49.88249191 61.56457273 48.98780823 53.39440918 C48.32780823 52.40440918 47.66780823 51.41440918 46.98780823 50.39440918 C44.2777632 49.88380418 44.2777632 49.88380418 41.10499573 49.88269043 C39.93839417 49.84724121 38.7717926 49.81179199 37.56983948 49.77526855 C36.34651917 49.75270996 35.12319885 49.73015137 33.86280823 49.70690918 C32.0162262 49.65566895 32.0162262 49.65566895 30.13233948 49.60339355 C27.08425313 49.52069354 24.03646252 49.4516149 20.98780823 49.39440918 C20.88726135 50.5004248 20.78671448 51.60644043 20.68312073 52.74597168 C20.02139023 57.96022608 18.46839463 62.77849581 16.86280823 67.76940918 C16.14321177 70.0564947 15.42599173 72.34432857 14.71046448 74.63269043 C14.5083989 75.2776799 14.30633331 75.92266937 14.09814453 76.58720398 C11.08464223 86.23910327 8.20171642 95.93100124 5.3006134 105.61712646 C4.32015123 108.89065808 3.33840537 112.1638025 2.35646057 115.43688965 C-3.80704914 135.8146489 -3.80704914 135.8146489 -9.63719177 156.28894043 C-9.86922302 157.11845215 -10.10125427 157.94796387 -10.34031677 158.8026123 C-10.80141091 160.45263233 -11.24862076 162.10657646 -11.68406677 163.7635498 C-11.91609802 164.57630371 -12.14812927 165.38905762 -12.38719177 166.22644043 C-12.58055115 166.93518311 -12.77391052 167.64392578 -12.97312927 168.37414551 C-14.50912464 171.36060267 -16.14893938 172.63987067 -19.01219177 174.39440918 C-21.80444641 174.79685485 -24.19371432 174.97990736 -26.98094177 174.96081543 C-27.73887024 174.96701401 -28.49679871 174.97321259 -29.2776947 174.979599 C-30.87456482 174.98667907 -32.47150904 174.98355476 -34.06834412 174.9708252 C-36.50543986 174.95694763 -38.93870062 174.99106182 -41.37547302 175.0291748 C-42.93146354 175.03012602 -44.48745884 175.02826704 -46.04344177 175.02331543 C-46.76753235 175.03657364 -47.49162292 175.04983185 -48.23765564 175.06349182 C-52.29436298 174.98918254 -53.86622434 174.51804169 -57.01023865 171.85510254 C-57.67088318 171.04307373 -58.33152771 170.23104492 -59.01219177 169.39440918 C-58.3385039 166.90778892 -57.66120025 164.42221097 -56.98094177 161.93737793 C-56.30980731 159.48286602 -55.64346331 157.02704114 -54.98094177 154.57019043 C-52.17121427 144.2341021 -49.08547368 133.99720519 -45.8669281 123.78088379 C-43.94042575 117.61655254 -42.25474635 111.44545676 -40.72850037 105.17077637 C-39.90323722 101.97210818 -38.88596561 98.87893104 -37.80711365 95.75866699 C-36.14304683 90.80939702 -34.73080338 85.77937413 -33.26219177 80.76940918 C-30.64523515 71.87856026 -27.98567578 63.00318155 -25.26219177 54.14440918 C-22.95224623 46.62036606 -20.81783206 39.07716571 -18.83641052 31.46081543 C-17.96729312 28.22736919 -16.97045864 25.07753168 -15.85594177 21.92175293 C-15.13308991 19.75654387 -14.48431719 17.59205509 -13.85594177 15.39831543 C-13.64509949 14.67893799 -13.4342572 13.95956055 -13.21702576 13.21838379 C-12.79640733 11.77843315 -12.38662398 10.33526262 -11.98899841 8.88879395 C-9.91356612 1.88452777 -7.19897117 0.02506736 0 0 Z " fill="#0D0D0D" transform="translate(409.01219177246094,78.6055908203125)"/>
<path d="M0 0 C1.08085876 -0.00428513 2.16171753 -0.00857025 3.27532959 -0.01298523 C5.54764104 -0.0186909 7.81997074 -0.01925682 10.09228516 -0.01489258 C13.52408844 -0.01173968 16.95502204 -0.03521616 20.38671875 -0.06054688 C37.89831329 -0.11217304 56.30451004 0.01176459 70.171875 12.42578125 C76.59722722 19.46532155 80.41902381 28.55626977 80.4296875 38.01953125 C80.43097656 39.11652344 80.43226563 40.21351562 80.43359375 41.34375 C80.42972656 42.48457031 80.42585937 43.62539062 80.421875 44.80078125 C80.42574219 45.94160156 80.42960938 47.08242187 80.43359375 48.2578125 C80.43166016 49.90330078 80.43166016 49.90330078 80.4296875 51.58203125 C80.42855957 52.58298828 80.42743164 53.58394531 80.42626953 54.61523438 C80.296875 57.30078125 80.296875 57.30078125 79.296875 61.30078125 C62.136875 61.30078125 44.976875 61.30078125 27.296875 61.30078125 C27.626875 55.36078125 27.956875 49.42078125 28.296875 43.30078125 C26.98298121 37.13439369 26.98298121 37.13439369 23.296875 32.30078125 C16.07864222 28.69166486 5.70994778 29.30925268 -2.05859375 31.0546875 C-7.12267882 32.83584846 -11.3593945 35.18220551 -15.703125 38.30078125 C-16.363125 38.30078125 -17.023125 38.30078125 -17.703125 38.30078125 C-17.98462402 38.87119141 -18.26612305 39.44160156 -18.55615234 40.02929688 C-19.29286507 41.48829543 -20.05195426 42.93632566 -20.83837891 44.36914062 C-24.67555795 51.5474844 -26.9048341 58.98777035 -29.078125 66.80078125 C-29.46560923 68.16507513 -29.85380368 69.52916747 -30.24267578 70.89306641 C-33.06798651 80.84589548 -35.78225223 90.83053577 -38.40771484 100.83789062 C-39.59104981 105.32473293 -40.82168164 109.73415877 -42.37109375 114.109375 C-44.71226763 120.96676866 -44.99005231 128.19070692 -42.203125 134.92578125 C-36.03620092 140.78435913 -29.16928855 140.74757561 -21.0637207 140.64794922 C-11.44234153 140.32952111 -4.78825466 138.43696987 2.26171875 131.5859375 C9.21966158 123.77327616 11.75906833 115.25679205 14.296875 105.30078125 C6.046875 105.30078125 -2.203125 105.30078125 -10.703125 105.30078125 C-9.05388275 96.22994887 -6.93919298 87.24505316 -4.703125 78.30078125 C21.366875 78.30078125 47.436875 78.30078125 74.296875 78.30078125 C73.62242886 83.0219042 72.94149747 86.95677541 71.625 91.44140625 C71.29322754 92.58351563 70.96145508 93.725625 70.61962891 94.90234375 C70.08861572 96.70832031 70.08861572 96.70832031 69.546875 98.55078125 C66.11255377 110.39228434 66.11255377 110.39228434 62.921875 122.30078125 C60.62997606 131.18188965 58.18984552 140.02141918 55.74041748 148.86010742 C55.27942116 150.52396215 54.81917083 152.18802376 54.35968018 153.85229492 C53.71072794 156.20162313 53.05893406 158.55014369 52.40625 160.8984375 C52.20855011 161.61524185 52.01085022 162.3320462 51.80715942 163.0705719 C50.41159298 168.07134528 50.41159298 168.07134528 49.296875 170.30078125 C44.93696627 170.37496171 40.57739221 170.42939669 36.21704102 170.46557617 C34.73390301 170.48065893 33.25080956 170.50112814 31.76782227 170.52709961 C29.63546755 170.56350741 27.50370265 170.58051198 25.37109375 170.59375 C24.08807373 170.60946045 22.80505371 170.6251709 21.4831543 170.64135742 C18.04572735 170.27393649 17.39639316 169.87037268 15.296875 167.30078125 C12.92424225 167.46086337 12.92424225 167.46086337 10.296875 168.30078125 C8.046875 168.80078125 5.796875 169.30078125 3.546875 169.80078125 C1.82210937 170.1875 1.82210937 170.1875 0.0625 170.58203125 C-24.61575623 175.29240381 -59.39638248 176.32340799 -81.203125 161.92578125 C-90.13857715 155.14362658 -95.03248664 147.16594245 -97.703125 136.30078125 C-98.0390625 132.64453125 -98.0390625 132.64453125 -98.078125 128.80078125 C-98.10648438 127.55296875 -98.13484375 126.30515625 -98.1640625 125.01953125 C-97.46606259 112.41999319 -91.96807535 99.36603766 -88.265625 87.36328125 C-87.79598228 85.83275643 -87.32658064 84.30215761 -86.85742188 82.77148438 C-85.93176124 79.75354675 -85.00149908 76.73708593 -84.06762695 73.72167969 C-83.15863746 70.78564727 -82.26249787 67.84613729 -81.37573242 64.90332031 C-79.29544644 58.04336353 -77.22869282 51.29908904 -73.890625 44.92578125 C-73.5493457 44.26352539 -73.20806641 43.60126953 -72.85644531 42.91894531 C-69.77698579 37.12481074 -66.16254985 32.12535065 -61.703125 27.30078125 C-60.81882812 26.32496094 -59.93453125 25.34914063 -59.0234375 24.34375 C-42.91269566 7.09875535 -23.53596843 -0.0212021 0 0 Z " fill="#0A0A0A" transform="translate(862.703125,79.69921875)"/>
<path d="M0 0 C0.7152887 0.00310181 1.43057739 0.00620361 2.1675415 0.00939941 C42.63251203 0.21443365 42.63251203 0.21443365 56.8125 12.25 C65.47729433 21.18932246 68.89288565 31.57795986 69.0625 43.875 C69.10117187 45.53402344 69.10117187 45.53402344 69.140625 47.2265625 C68.69721192 52.66365148 67.13556577 57.95773691 65.8125 63.25 C48.9825 63.25 32.1525 63.25 14.8125 63.25 C15.1425 61.27 15.4725 59.29 15.8125 57.25 C16.04612655 54.41683496 16.08754057 51.59192207 16.125 48.75 C16.15400391 48.01652344 16.18300781 47.28304687 16.21289062 46.52734375 C16.27345451 41.31884979 15.39016569 38.28451521 11.8125 34.25 C7.05559731 31.01475783 2.76155983 30.70455288 -2.8125 30.75 C-3.60430664 30.75427002 -4.39611328 30.75854004 -5.21191406 30.76293945 C-13.6327466 31.00482898 -20.77755542 33.54983226 -27.625 38.5 C-32.74887615 43.99879392 -35.18898386 49.89815548 -37.390625 57.04296875 C-37.60088821 57.72496338 -37.81115143 58.40695801 -38.02778625 59.10961914 C-40.92033717 68.55459874 -43.67628547 78.04103502 -46.4362793 87.52539062 C-47.38164143 90.77281404 -48.33032419 94.01925507 -49.27929688 97.265625 C-49.88821807 99.35410917 -50.49694891 101.44264885 -51.10546875 103.53125 C-51.38569382 104.48970825 -51.66591888 105.4481665 -51.95463562 106.43566895 C-56.05295243 119.00054306 -56.05295243 119.00054306 -55.5 131.9375 C-53.33157222 135.75806323 -50.55623645 137.68640264 -46.53125 139.34375 C-42.62575863 140.40224766 -38.95307485 140.5930128 -34.9375 140.5625 C-34.18750732 140.55831055 -33.43751465 140.55412109 -32.66479492 140.54980469 C-24.32210026 140.38055611 -16.65992687 138.83982321 -10.1875 133.25 C-4.44672001 125.95142041 -0.82135167 117.72898724 2.8125 109.25 C19.6425 109.25 36.4725 109.25 53.8125 109.25 C52.68505874 118.26953009 52.68505874 118.26953009 51.24609375 121.3984375 C50.92962891 122.08881104 50.61316406 122.77918457 50.28710938 123.49047852 C49.94486328 124.19487061 49.60261719 124.8992627 49.25 125.625 C48.89357422 126.36741943 48.53714844 127.10983887 48.16992188 127.87475586 C45.11958586 134.01898496 41.50396583 139.22737187 36.8125 144.25 C36.17570313 144.95382813 35.53890625 145.65765625 34.8828125 146.3828125 C21.01424128 161.03114275 1.97204417 168.86605042 -17.8125 170.9375 C-18.99384521 171.06342529 -20.17519043 171.18935059 -21.39233398 171.3190918 C-46.80120736 173.83426544 -75.57044479 175.05218936 -96.8125 158.625 C-103.09020016 152.94726652 -108.3671008 144.76517794 -109.1875 136.25 C-109.30351563 135.22648438 -109.41953125 134.20296875 -109.5390625 133.1484375 C-110.32499182 119.32190311 -106.039692 106.39072017 -102.1875 93.25 C-101.82914063 92.01830078 -101.47078125 90.78660156 -101.1015625 89.51757812 C-86.94879269 41.31284265 -86.94879269 41.31284265 -69.1875 23.25 C-68.50042969 22.55003906 -67.81335938 21.85007812 -67.10546875 21.12890625 C-48.61812023 3.53334077 -24.58535682 -0.19067863 0 0 Z " fill="#0B0B0B" transform="translate(693.1875,79.75)"/>
<path d="M0 0 C-1.20962927 10.67975313 -2.79357167 21.26836574 -4.59082031 31.86499023 C-9.08301649 58.9588189 -6.67137925 85.86400127 -1.58911133 112.69384766 C-1.26076294 114.45027588 -1.26076294 114.45027588 -0.92578125 116.2421875 C-0.72380127 117.2822998 -0.52182129 118.32241211 -0.3137207 119.39404297 C0 122 0 122 -1 125 C-14.78144363 118.46639899 -28.48982671 111.80149554 -42.125 104.96875 C-42.81206024 104.62449982 -43.49912048 104.28024963 -44.20700073 103.92556763 C-49.13944946 101.45326199 -54.06990673 98.97699855 -59 96.5 C-63.99226365 93.99193973 -68.98525263 91.48534245 -73.97991943 88.98207092 C-75.94204944 87.99781939 -77.90294145 87.011134 -79.86376953 86.02429199 C-86.17805373 82.85429945 -92.51201433 79.80004123 -99 77 C-99 76.01 -99 75.02 -99 74 C-97.14428711 72.62304688 -97.14428711 72.62304688 -94.58984375 71.21875 C-89.37013705 68.23868191 -84.46729738 64.96889586 -79.5625 61.5 C-78.7070459 60.89760498 -77.8515918 60.29520996 -76.97021484 59.67456055 C-51.59370843 41.73503248 -26.65496575 22.82321677 -3.92578125 1.58203125 C-2 0 -2 0 0 0 Z " fill="#DA433D" transform="translate(148,148)"/>
<path d="M0 0 C3.8767125 1.2671211 7.51623645 2.6301453 11.17578125 4.43359375 C12.15482422 4.91175537 13.13386719 5.38991699 14.14257812 5.88256836 C15.71168945 6.65225952 15.71168945 6.65225952 17.3125 7.4375 C49.01442671 22.78302349 81.58740005 35.88289984 115 47 C115 47.99 115 48.98 115 50 C114.33282959 50.22026855 113.66565918 50.44053711 112.97827148 50.66748047 C100.66310465 54.76096069 88.46774932 59.00576536 76.5625 64.1875 C75.20886353 64.774104 75.20886353 64.774104 73.82788086 65.37255859 C63.86667947 69.79463466 54.5687179 75.02857048 45.625 81.25 C44.80555908 81.8164624 43.98611816 82.3829248 43.1418457 82.96655273 C34.86633837 88.72621495 26.77316671 94.65432462 19.19921875 101.3203125 C18.56153564 101.87968506 17.92385254 102.43905762 17.2668457 103.01538086 C16.02832769 104.11005241 14.798565 105.21473 13.57885742 106.33032227 C12.11702707 107.62989221 10.56427221 108.82574175 9 110 C8.01 109.67 7.02 109.34 6 109 C5.98312637 108.40563644 5.96625275 107.81127289 5.9488678 107.19889832 C5.30237267 85.4815735 3.9695796 63.81616157 2.61352539 42.13397217 C2.31607209 37.36615881 2.02248106 32.59810757 1.72851562 27.83007812 C1.15601487 18.55315555 0.57940362 9.27649383 0 0 Z " fill="#DA423C" transform="translate(65,79)"/>
<path d="M0 0 C4.46529694 0.87095515 7.07285112 3.40769883 10.375 6.375 C11.62957069 7.47487274 12.8861351 8.57247489 14.14453125 9.66796875 C14.78471191 10.22532715 15.42489258 10.78268555 16.08447266 11.35693359 C43.45014322 34.83016364 74.14684378 49.22107977 108 61 C108 61.99 108 62.98 108 64 C105.67653164 65.6652128 103.39964661 67.1214232 100.94140625 68.5625 C99.45738921 69.46041274 97.97450336 70.36019733 96.49267578 71.26171875 C95.73770813 71.71853027 94.98274048 72.1753418 94.20489502 72.64599609 C90.948085 74.64597045 87.7651089 76.74865499 84.58984375 78.875 C83.97623489 79.28490677 83.36262604 79.69481354 82.73042297 80.11714172 C81.45765161 80.96860606 80.18548959 81.82098187 78.91390991 82.67422485 C76.86279478 84.05011224 74.80923078 85.42228019 72.75512695 86.79370117 C65.50926775 91.6333733 58.2730414 96.48723637 51.04307556 101.35061646 C47.46762776 103.75426297 43.88919001 106.15343495 40.31033325 108.55200195 C38.56722301 109.72201235 36.82557283 110.89420102 35.0854187 112.06860352 C32.64764561 113.71371604 30.20522705 115.35170407 27.76171875 116.98828125 C27.03402283 117.48201736 26.3063269 117.97575348 25.55657959 118.48445129 C24.88137268 118.93471176 24.20616577 119.38497223 23.51049805 119.84887695 C22.92608444 120.24218704 22.34167084 120.63549713 21.73954773 121.04072571 C19.84883858 122.08335803 18.1076998 122.56729055 16 123 C15.96559814 122.32163086 15.93119629 121.64326172 15.89575195 120.94433594 C13.73232821 80.2786778 8.78768402 39.78030754 0 0 Z " fill="#DA443E" transform="translate(148,187)"/>
<path d="M0 0 C0.99 0 1.98 0 3 0 C3.61827664 9.46956097 4.2356946 18.93917748 4.8521328 28.4088583 C5.13866148 32.81011406 5.425443 37.21135298 5.71289062 41.61254883 C7.2012682 64.40495312 8.6434206 87.19934498 10 110 C5.49040324 108.53632067 1.25600579 106.79639831 -3.00390625 104.7265625 C-4.3832732 104.06552064 -5.76283907 103.40489374 -7.14257812 102.74462891 C-7.8626001 102.3989386 -8.58262207 102.05324829 -9.32446289 101.69708252 C-25.66235978 93.87077187 -42.16049065 86.68898087 -59 80 C-60.13969238 79.54367188 -61.27938477 79.08734375 -62.45361328 78.6171875 C-76.45541431 73.02844297 -90.47059734 68.03412309 -105 64 C-105 63.01 -105 62.02 -105 61 C-102.43791044 59.99893937 -99.87529894 58.99924184 -97.3125 58 C-96.5095752 57.68603271 -95.70665039 57.37206543 -94.87939453 57.04858398 C-90.49655182 55.34002532 -86.10567262 53.66095176 -81.69140625 52.03515625 C-58.51794776 43.47211708 -37.68506106 32.06876437 -18.57128906 16.29492188 C-17.00242635 15.00199959 -15.42129209 13.72574941 -13.8359375 12.453125 C-8.64487827 8.30300288 -8.64487827 8.30300288 -3.8203125 3.74609375 C-2 2 -2 2 0 2 C0 1.34 0 0.68 0 0 Z " fill="#DA433D" transform="translate(289,143)"/>
<path d="M0 0 C2.0625 0.4375 2.0625 0.4375 4 1 C4.02916504 1.68247803 4.05833008 2.36495605 4.08837891 3.06811523 C5.94719607 43.29541457 11.02759494 83.72456651 20 123 C15.37515923 122.11812624 12.70039151 119.33533791 9.3125 116.25 C1.19684492 109.0497572 -7.25448549 102.41590491 -16 96 C-16.59683594 95.5555957 -17.19367188 95.11119141 -17.80859375 94.65332031 C-38.85436629 79.13146653 -64.32214269 69.97154154 -89 62 C-87.84623492 58.53870475 -87.18628342 58.17677766 -84.22827148 56.2512207 C-83.42405762 55.72192459 -82.61984375 55.19262848 -81.79125977 54.64729309 C-80.91010498 54.07919418 -80.0289502 53.51109528 -79.12109375 52.92578125 C-78.21037109 52.32936325 -77.29964844 51.73294525 -76.36132812 51.11845398 C-73.3914861 49.17572432 -70.41449594 47.24424515 -67.4375 45.3125 C-65.4024844 43.98332746 -63.36806067 42.65324831 -61.33422852 41.32226562 C-57.34333838 38.7112298 -53.35033618 36.1034813 -49.35546875 33.49853516 C-43.02563546 29.36777612 -36.72251182 25.19863373 -30.4375 21 C-29.5304834 20.39446289 -28.6234668 19.78892578 -27.68896484 19.16503906 C-21.4584903 14.99599122 -15.25336245 10.79012248 -9.0625 6.5625 C-8.25546631 6.01142578 -7.44843262 5.46035156 -6.61694336 4.89257812 C-5.88870361 4.39306641 -5.16046387 3.89355469 -4.41015625 3.37890625 C-3.77215088 2.9413501 -3.13414551 2.50379395 -2.47680664 2.05297852 C-1.02183904 1.0769165 -1.02183904 1.0769165 0 0 Z " fill="#DA443D" transform="translate(196,23)"/>
<path d="M0 0 C5.35706524 1.59171716 10.1561524 3.94324435 15.12646484 6.44970703 C16.02466949 6.89866333 16.92287415 7.34761963 17.84829712 7.81018066 C20.80442367 9.2889383 23.75767917 10.77333611 26.7109375 12.2578125 C28.76484994 13.28663459 30.81893978 14.31510262 32.87319946 15.3432312 C38.27047428 18.04568044 43.66532895 20.75292669 49.05969238 23.46118164 C54.5682882 26.22572234 60.07916114 28.9857158 65.58984375 31.74609375 C76.39546165 37.1596165 87.19852809 42.57821013 98 48 C98 48.99 98 49.98 98 51 C95.7167669 52.61946681 93.4749985 54.0344116 91.0625 55.4375 C59.5784604 74.43691373 29.60219159 98.06394901 2.48828125 122.85546875 C1 124 1 124 -1 124 C-0.31423431 115.40362 1.08233543 106.93642934 2.5 98.4375 C7.45794117 68.63695885 6.3947557 40.22330199 0.91479492 10.46533203 C0.26710927 6.92673559 -0.14593482 3.59972551 0 0 Z " fill="#DA433D" transform="translate(217,60)"/>
<path d="M0 0 C2.49064539 2.49064539 2.95942401 4.18370653 3.1328125 7.671875 C3.13023437 8.68765625 3.12765625 9.7034375 3.125 10.75 C3.12757813 11.75546875 3.13015625 12.7609375 3.1328125 13.796875 C2.99104902 17.21587667 2.48393531 20.61245281 2 24 C18.17 24 34.34 24 51 24 C51.33 22.02 51.66 20.04 52 18 C53.08174162 21.36541838 52.92538169 22.29847322 52 26 C34.84 26 17.68 26 0 26 C0.495 17.09 0.495 17.09 1 8 C0.67 5.36 0.34 2.72 0 0 Z " fill="#989898" transform="translate(890,115)"/>
<path d="M0 0 C2.17666626 -0.36076355 2.17666626 -0.36076355 4.90869141 -0.34057617 C6.44005234 -0.34023628 6.44005234 -0.34023628 8.00234985 -0.33988953 C9.10759003 -0.32440567 10.2128302 -0.30892181 11.3515625 -0.29296875 C12.4807309 -0.28872391 13.60989929 -0.28447906 14.77328491 -0.28010559 C18.39076273 -0.26327132 22.00768969 -0.22560975 25.625 -0.1875 C28.07290864 -0.17245934 30.52082598 -0.15876986 32.96875 -0.14648438 C38.9793556 -0.11335227 44.98963846 -0.06310579 51 0 C50.25 7.75 50.25 7.75 48 10 C48.33 7.36 48.66 4.72 49 2 C32.83 2 16.66 2 0 2 C-0.33 3.32 -0.66 4.64 -1 6 C-1.33 5.01 -1.66 4.02 -2 3 C-1.34 2.01 -0.68 1.02 0 0 Z " fill="#AFAFAF" transform="translate(696,189)"/>
<path d="M0 0 C6 2 6 2 8 4 C6.02 4 4.04 4 2 4 C2.13277344 4.86496094 2.26554687 5.72992188 2.40234375 6.62109375 C5.11304266 25.95213634 5.19598537 45.51034415 5 65 C4.67 65 4.34 65 4 65 C2.68 43.55 1.36 22.1 0 0 Z " fill="#EDADAC" transform="translate(65,79)"/>
<path d="M0 0 C0.33 0 0.66 0 1 0 C0.67 2.97 0.34 5.94 0 9 C7.92 9 15.84 9 24 9 C24 10.98 24 12.96 24 15 C23.67 13.68 23.34 12.36 23 11 C14.75 11 6.5 11 -2 11 C-1.34 7.37 -0.68 3.74 0 0 Z " fill="#929292" transform="translate(854,174)"/>
<path d="M0 0 C0.33 0 0.66 0 1 0 C1.42959116 5.7473052 1.85677169 11.49478264 2.28173828 17.24243164 C2.4265863 19.19690773 2.57208809 21.15133549 2.71826172 23.10571289 C2.92848655 25.91800627 3.13634474 28.73046619 3.34375 31.54296875 C3.40937134 32.41398727 3.47499268 33.2850058 3.54260254 34.18241882 C3.83164116 38.13079586 4.08513674 42.03759424 4 46 C2.68 45.34 1.36 44.68 0 44 C0.66 44 1.32 44 2 44 C1.93941406 43.30664551 1.87882812 42.61329102 1.81640625 41.89892578 C0.61320737 27.90248343 -0.32675505 14.05046725 0 0 Z " fill="#F2C5C5" transform="translate(295,207)"/>
<path d="M0 0 C0.66 0 1.32 0 2 0 C0.6798974 11.39947424 -1.03714283 22.69394268 -3 34 C-3.33 34 -3.66 34 -4 34 C-4.1569794 28.21138478 -3.62481132 22.98215704 -2.5 17.3125 C-1.20673736 10.71066226 -1.20673736 10.71066226 -1 4 C-2.98 4.99 -2.98 4.99 -5 6 C-3.38405168 3.95880212 -1.7143618 1.95927063 0 0 Z " fill="#F1C2C2" transform="translate(146,148)"/>
<path d="M0 0 C0.66 0.33 1.32 0.66 2 1 C-7.76873265 12.47826087 -7.76873265 12.47826087 -13 17 C-13.66 17 -14.32 17 -15 17 C-13.67879172 14.06769807 -12.25361803 12.01335101 -9.9609375 9.765625 C-9.38085938 9.19199219 -8.80078125 8.61835937 -8.203125 8.02734375 C-7.59984375 7.44082031 -6.9965625 6.85429688 -6.375 6.25 C-5.76398437 5.64800781 -5.15296875 5.04601562 -4.5234375 4.42578125 C-3.02011376 2.94594695 -1.51065144 1.47235324 0 0 Z " fill="#5B5B5B" transform="translate(813,95)"/>
<path d="M0 0 C0.33 0 0.66 0 1 0 C1.46112386 8.60764545 -0.27151563 16.61479306 -2 25 C-1.34 25.33 -0.68 25.66 0 26 C-1.98 26.99 -1.98 26.99 -4 28 C-3.23945318 18.56921949 -1.61328437 9.31443428 0 0 Z " fill="#EEB1B0" transform="translate(220,156)"/>
<path d="M0 0 C0.66 0.33 1.32 0.66 2 1 C-2.03523352 5.81123996 -6.04467233 10.13242719 -11 14 C-11 11 -11 11 -8.59375 8.30078125 C-7.5700032 7.29697757 -6.5383946 6.30114351 -5.5 5.3125 C-4.97535156 4.80138672 -4.45070313 4.29027344 -3.91015625 3.76367188 C-2.61339096 2.50227292 -1.30753883 1.25022788 0 0 Z " fill="#707070" transform="translate(629,98)"/>
<path d="M0 0 C6 2 6 2 8 4 C6.02 4 4.04 4 2 4 C2 9.28 2 14.56 2 20 C1.67 20 1.34 20 1 20 C0.67 13.4 0.34 6.8 0 0 Z " fill="#EFB5B4" transform="translate(65,79)"/>
<path d="M0 0 C0.33 0 0.66 0 1 0 C1.99 4.62 2.98 9.24 4 14 C0 13 0 13 -2 10 C-1.34 10 -0.68 10 0 10 C0 6.7 0 3.4 0 0 Z " fill="#EEB2B1" transform="translate(212,132)"/>
<path d="M0 0 C1.98 0.66 3.96 1.32 6 2 C5.01 2.66 4.02 3.32 3 4 C2.27034634 6.56282742 2.27034634 6.56282742 2 9 C0.14223235 5.86501708 -0.20140476 3.62528568 0 0 Z " fill="#ECA5A4" transform="translate(217,60)"/>
<path d="M0 0 C-0.33 1.65 -0.66 3.3 -1 5 C-3 5 -5 5 -7 5 C-2.25 0 -2.25 0 0 0 Z " fill="#ECA8A7" transform="translate(148,148)"/>
</svg>
